<?xml version="1.0" encoding="UTF-8"?>
<svg xmlns="http://www.w3.org/2000/svg" xmlns:xlink="http://www.w3.org/1999/xlink" width="24px" height="24px" viewBox="0 0 24 24" version="1.1">
<g id="surface1">
<path style=" stroke:none;fill-rule:nonzero;fill:rgb(0%,45.490196%,84.705883%);fill-opacity:1;" d="M 14.136719 1.65625 C 14.167969 1.683594 14.203125 1.714844 14.234375 1.746094 C 14.261719 1.769531 14.285156 1.792969 14.3125 1.8125 C 14.375 1.867188 14.433594 1.925781 14.492188 1.984375 C 14.5 1.996094 14.511719 2.007812 14.523438 2.019531 C 14.585938 2.078125 14.644531 2.140625 14.699219 2.207031 C 14.710938 2.222656 14.722656 2.234375 14.734375 2.246094 C 14.820312 2.347656 14.902344 2.449219 14.980469 2.554688 C 15 2.578125 15.015625 2.601562 15.035156 2.625 C 15.328125 3.003906 15.570312 3.425781 15.792969 3.851562 C 15.859375 3.84375 15.929688 3.835938 15.996094 3.824219 C 16.363281 3.765625 16.714844 3.730469 17.085938 3.726562 C 17.097656 3.726562 17.113281 3.726562 17.128906 3.726562 C 17.695312 3.722656 18.285156 3.820312 18.792969 4.089844 C 18.816406 4.105469 18.84375 4.117188 18.867188 4.128906 C 19.0625 4.234375 19.238281 4.363281 19.398438 4.515625 C 19.417969 4.535156 19.4375 4.554688 19.457031 4.574219 C 19.613281 4.722656 19.738281 4.894531 19.847656 5.074219 C 19.851562 5.085938 19.859375 5.09375 19.863281 5.101562 C 20.152344 5.589844 20.292969 6.175781 20.292969 6.742188 C 20.292969 6.765625 20.292969 6.765625 20.292969 6.785156 C 20.292969 6.832031 20.296875 6.878906 20.296875 6.925781 C 20.296875 6.933594 20.296875 6.941406 20.296875 6.949219 C 20.296875 7.191406 20.289062 7.429688 20.257812 7.667969 C 20.253906 7.683594 20.25 7.703125 20.25 7.71875 C 20.226562 7.890625 20.199219 8.0625 20.160156 8.230469 C 20.171875 8.234375 20.179688 8.238281 20.191406 8.242188 C 20.230469 8.253906 20.269531 8.273438 20.304688 8.289062 C 20.328125 8.300781 20.328125 8.300781 20.347656 8.3125 C 20.363281 8.320312 20.378906 8.324219 20.394531 8.332031 C 20.410156 8.339844 20.425781 8.347656 20.441406 8.355469 C 20.480469 8.375 20.519531 8.394531 20.558594 8.414062 C 20.578125 8.421875 20.597656 8.433594 20.617188 8.441406 C 20.789062 8.527344 20.957031 8.617188 21.121094 8.710938 C 21.136719 8.722656 21.136719 8.722656 21.15625 8.734375 C 21.589844 8.984375 22.003906 9.269531 22.375 9.609375 C 22.390625 9.625 22.40625 9.636719 22.421875 9.652344 C 22.496094 9.714844 22.558594 9.777344 22.625 9.84375 C 22.644531 9.863281 22.664062 9.882812 22.683594 9.902344 C 22.75 9.964844 22.8125 10.03125 22.871094 10.105469 C 22.878906 10.109375 22.882812 10.117188 22.890625 10.125 C 23.34375 10.667969 23.703125 11.339844 23.722656 12.058594 C 23.722656 12.070312 23.722656 12.078125 23.726562 12.085938 C 23.738281 12.59375 23.617188 13.085938 23.375 13.535156 C 23.371094 13.542969 23.367188 13.554688 23.363281 13.5625 C 23.195312 13.875 22.980469 14.152344 22.738281 14.410156 C 22.730469 14.425781 22.71875 14.4375 22.707031 14.449219 C 22.558594 14.613281 22.394531 14.761719 22.222656 14.902344 C 22.214844 14.910156 22.210938 14.917969 22.203125 14.921875 C 21.789062 15.265625 21.328125 15.558594 20.851562 15.808594 C 20.800781 15.839844 20.746094 15.867188 20.695312 15.898438 C 20.683594 15.902344 20.675781 15.90625 20.667969 15.914062 C 20.644531 15.925781 20.625 15.9375 20.605469 15.949219 C 20.605469 15.960938 20.609375 15.972656 20.609375 15.984375 C 20.660156 16.222656 20.707031 16.460938 20.734375 16.703125 C 20.738281 16.71875 20.738281 16.730469 20.742188 16.742188 C 20.773438 16.976562 20.777344 17.210938 20.777344 17.445312 C 20.777344 17.46875 20.777344 17.46875 20.777344 17.488281 C 20.78125 18.417969 20.507812 19.28125 19.855469 19.953125 C 19.285156 20.515625 18.429688 20.769531 17.644531 20.773438 C 17.628906 20.773438 17.617188 20.773438 17.601562 20.773438 C 17.265625 20.777344 16.9375 20.773438 16.609375 20.722656 C 16.597656 20.722656 16.589844 20.722656 16.578125 20.71875 C 16.289062 20.675781 16.007812 20.617188 15.722656 20.546875 C 15.683594 20.539062 15.640625 20.527344 15.601562 20.519531 C 15.59375 20.527344 15.589844 20.535156 15.585938 20.542969 C 15.324219 21 15.023438 21.429688 14.675781 21.828125 C 14.667969 21.839844 14.65625 21.851562 14.648438 21.859375 C 14.574219 21.941406 14.5 22.015625 14.425781 22.09375 C 14.414062 22.105469 14.398438 22.117188 14.386719 22.128906 C 14.316406 22.203125 14.246094 22.269531 14.164062 22.332031 C 14.136719 22.355469 14.113281 22.378906 14.085938 22.402344 C 13.601562 22.839844 12.890625 23.171875 12.230469 23.175781 C 12.21875 23.175781 12.210938 23.175781 12.199219 23.175781 C 11.785156 23.175781 11.785156 23.175781 11.59375 23.136719 C 11.578125 23.132812 11.566406 23.128906 11.554688 23.128906 C 11.058594 23.023438 10.609375 22.800781 10.210938 22.488281 C 10.199219 22.480469 10.191406 22.472656 10.179688 22.460938 C 10.148438 22.4375 10.121094 22.414062 10.09375 22.390625 C 10.082031 22.382812 10.070312 22.371094 10.054688 22.363281 C 9.871094 22.210938 9.691406 22.046875 9.535156 21.863281 C 9.511719 21.835938 9.488281 21.808594 9.460938 21.78125 C 9.410156 21.722656 9.359375 21.660156 9.3125 21.601562 C 9.300781 21.585938 9.292969 21.574219 9.28125 21.5625 C 9.007812 21.21875 8.769531 20.84375 8.550781 20.464844 C 8.542969 20.453125 8.542969 20.453125 8.539062 20.441406 C 8.507812 20.390625 8.507812 20.390625 8.507812 20.363281 C 8.492188 20.367188 8.492188 20.367188 8.476562 20.371094 C 8.089844 20.480469 7.695312 20.566406 7.296875 20.617188 C 7.28125 20.617188 7.269531 20.621094 7.253906 20.621094 C 6.816406 20.675781 6.351562 20.6875 5.914062 20.617188 C 5.902344 20.613281 5.886719 20.609375 5.871094 20.609375 C 5.414062 20.535156 4.949219 20.386719 4.570312 20.113281 C 4.5625 20.105469 4.550781 20.09375 4.539062 20.085938 C 4.339844 19.941406 4.15625 19.777344 4.007812 19.585938 C 4 19.574219 4 19.574219 3.992188 19.5625 C 3.878906 19.417969 3.789062 19.265625 3.707031 19.105469 C 3.703125 19.09375 3.699219 19.085938 3.695312 19.078125 C 3.515625 18.714844 3.425781 18.304688 3.382812 17.902344 C 3.382812 17.886719 3.382812 17.886719 3.378906 17.871094 C 3.34375 17.496094 3.359375 17.101562 3.40625 16.726562 C 3.410156 16.71875 3.410156 16.710938 3.410156 16.703125 C 3.460938 16.328125 3.535156 15.953125 3.640625 15.589844 C 3.652344 15.546875 3.660156 15.511719 3.660156 15.46875 C 3.632812 15.445312 3.632812 15.445312 3.597656 15.421875 C 3.589844 15.417969 3.582031 15.414062 3.578125 15.410156 C 3.5625 15.398438 3.546875 15.390625 3.535156 15.382812 C 3.496094 15.355469 3.460938 15.332031 3.421875 15.308594 C 3.410156 15.300781 3.410156 15.300781 3.398438 15.292969 C 3.242188 15.191406 3.09375 15.078125 2.949219 14.957031 C 2.917969 14.933594 2.890625 14.910156 2.859375 14.886719 C 2.796875 14.832031 2.738281 14.777344 2.675781 14.722656 C 2.644531 14.691406 2.613281 14.664062 2.578125 14.632812 C 2.472656 14.539062 2.371094 14.4375 2.28125 14.328125 C 2.269531 14.316406 2.257812 14.304688 2.25 14.292969 C 1.683594 13.652344 1.328125 12.851562 1.382812 11.984375 C 1.453125 11.121094 1.925781 10.394531 2.523438 9.796875 C 2.542969 9.777344 2.5625 9.757812 2.582031 9.738281 C 2.652344 9.667969 2.726562 9.601562 2.804688 9.539062 C 2.832031 9.515625 2.855469 9.496094 2.882812 9.472656 C 2.964844 9.394531 3.054688 9.332031 3.144531 9.265625 C 3.152344 9.257812 3.160156 9.253906 3.167969 9.246094 C 3.242188 9.1875 3.320312 9.132812 3.402344 9.082031 C 3.414062 9.070312 3.429688 9.0625 3.445312 9.050781 C 3.472656 9.035156 3.5 9.015625 3.527344 8.996094 C 3.539062 8.988281 3.550781 8.980469 3.566406 8.972656 C 3.582031 8.960938 3.582031 8.960938 3.597656 8.949219 C 3.613281 8.9375 3.613281 8.9375 3.625 8.929688 C 3.625 8.882812 3.617188 8.859375 3.605469 8.816406 C 3.601562 8.804688 3.597656 8.789062 3.59375 8.777344 C 3.589844 8.761719 3.582031 8.746094 3.578125 8.734375 C 3.382812 8.097656 3.226562 7.421875 3.226562 6.753906 C 3.226562 6.738281 3.226562 6.722656 3.226562 6.710938 C 3.226562 6.679688 3.226562 6.648438 3.226562 6.617188 C 3.226562 6.570312 3.226562 6.523438 3.222656 6.476562 C 3.21875 5.5625 3.5 4.707031 4.144531 4.046875 C 4.308594 3.886719 4.496094 3.761719 4.691406 3.648438 C 4.703125 3.640625 4.703125 3.640625 4.714844 3.632812 C 5.203125 3.355469 5.800781 3.226562 6.359375 3.226562 C 6.375 3.226562 6.386719 3.226562 6.402344 3.226562 C 6.449219 3.226562 6.496094 3.226562 6.542969 3.226562 C 6.554688 3.226562 6.554688 3.226562 6.566406 3.226562 C 6.8125 3.226562 7.054688 3.230469 7.296875 3.265625 C 7.3125 3.265625 7.332031 3.269531 7.351562 3.269531 C 7.765625 3.328125 8.171875 3.421875 8.578125 3.527344 C 8.582031 3.515625 8.585938 3.507812 8.589844 3.496094 C 8.601562 3.460938 8.613281 3.433594 8.632812 3.40625 C 8.640625 3.390625 8.640625 3.390625 8.648438 3.378906 C 8.65625 3.367188 8.660156 3.359375 8.667969 3.347656 C 8.671875 3.335938 8.679688 3.328125 8.6875 3.316406 C 8.804688 3.121094 8.925781 2.933594 9.058594 2.746094 C 9.070312 2.734375 9.070312 2.734375 9.078125 2.71875 C 9.179688 2.582031 9.285156 2.445312 9.394531 2.316406 C 9.40625 2.300781 9.417969 2.289062 9.433594 2.273438 C 9.574219 2.101562 9.730469 1.933594 9.898438 1.785156 C 9.925781 1.761719 9.953125 1.738281 9.980469 1.714844 C 10.054688 1.644531 10.132812 1.585938 10.210938 1.523438 C 10.21875 1.519531 10.226562 1.511719 10.234375 1.507812 C 10.683594 1.164062 11.199219 0.929688 11.761719 0.851562 C 11.769531 0.851562 11.777344 0.847656 11.789062 0.847656 C 12.648438 0.746094 13.492188 1.097656 14.136719 1.65625 Z M 14.136719 1.65625 "/>
<path style=" stroke:none;fill-rule:nonzero;fill:rgb(23.921569%,59.607846%,43.921569%);fill-opacity:1;" d="M 14.136719 1.65625 C 14.167969 1.683594 14.203125 1.714844 14.234375 1.746094 C 14.261719 1.769531 14.285156 1.792969 14.3125 1.8125 C 14.375 1.867188 14.433594 1.925781 14.492188 1.984375 C 14.507812 2 14.507812 2 14.523438 2.019531 C 14.585938 2.078125 14.644531 2.140625 14.699219 2.207031 C 14.710938 2.222656 14.722656 2.234375 14.734375 2.246094 C 14.820312 2.347656 14.902344 2.449219 14.980469 2.554688 C 15 2.578125 15.015625 2.601562 15.035156 2.625 C 15.328125 3.003906 15.570312 3.425781 15.792969 3.851562 C 15.859375 3.84375 15.929688 3.835938 15.996094 3.824219 C 16.363281 3.765625 16.714844 3.730469 17.085938 3.726562 C 17.097656 3.726562 17.113281 3.726562 17.128906 3.726562 C 17.695312 3.722656 18.285156 3.820312 18.792969 4.089844 C 18.816406 4.105469 18.84375 4.117188 18.867188 4.128906 C 19.0625 4.234375 19.238281 4.363281 19.398438 4.515625 C 19.417969 4.535156 19.4375 4.554688 19.457031 4.574219 C 19.613281 4.722656 19.738281 4.894531 19.847656 5.074219 C 19.851562 5.085938 19.859375 5.09375 19.863281 5.101562 C 20.152344 5.589844 20.292969 6.175781 20.292969 6.742188 C 20.292969 6.757812 20.292969 6.773438 20.292969 6.785156 C 20.292969 6.832031 20.296875 6.878906 20.296875 6.925781 C 20.296875 6.933594 20.296875 6.941406 20.296875 6.949219 C 20.296875 7.191406 20.289062 7.429688 20.257812 7.667969 C 20.253906 7.683594 20.25 7.703125 20.25 7.71875 C 20.226562 7.890625 20.199219 8.0625 20.160156 8.230469 C 20.171875 8.234375 20.179688 8.238281 20.191406 8.242188 C 20.230469 8.253906 20.269531 8.273438 20.304688 8.289062 C 20.320312 8.296875 20.335938 8.304688 20.347656 8.3125 C 20.363281 8.320312 20.378906 8.324219 20.394531 8.332031 C 20.410156 8.339844 20.425781 8.347656 20.441406 8.355469 C 20.480469 8.375 20.519531 8.394531 20.558594 8.414062 C 20.578125 8.421875 20.597656 8.433594 20.617188 8.441406 C 20.789062 8.527344 20.957031 8.617188 21.121094 8.710938 C 21.136719 8.722656 21.136719 8.722656 21.15625 8.734375 C 21.589844 8.984375 22.003906 9.269531 22.375 9.609375 C 22.390625 9.625 22.40625 9.636719 22.421875 9.652344 C 22.496094 9.714844 22.558594 9.777344 22.625 9.84375 C 22.644531 9.863281 22.664062 9.882812 22.683594 9.902344 C 22.75 9.964844 22.8125 10.03125 22.871094 10.105469 C 22.878906 10.109375 22.882812 10.117188 22.890625 10.125 C 23.34375 10.667969 23.703125 11.339844 23.722656 12.058594 C 23.722656 12.070312 23.722656 12.078125 23.726562 12.085938 C 23.738281 12.59375 23.617188 13.085938 23.375 13.535156 C 23.371094 13.542969 23.367188 13.554688 23.363281 13.5625 C 23.195312 13.875 22.980469 14.152344 22.738281 14.410156 C 22.730469 14.425781 22.71875 14.4375 22.707031 14.449219 C 22.558594 14.613281 22.394531 14.761719 22.222656 14.902344 C 22.214844 14.910156 22.210938 14.917969 22.203125 14.921875 C 21.789062 15.265625 21.328125 15.558594 20.851562 15.8125 C 20.820312 15.828125 20.789062 15.84375 20.757812 15.863281 C 20.738281 15.871094 20.722656 15.882812 20.703125 15.890625 C 20.695312 15.894531 20.6875 15.902344 20.675781 15.90625 C 20.621094 15.9375 20.621094 15.9375 20.578125 15.9375 C 20.578125 15.929688 20.578125 15.921875 20.574219 15.914062 C 20.542969 15.773438 20.507812 15.632812 20.464844 15.492188 C 20.453125 15.445312 20.4375 15.394531 20.425781 15.347656 C 20.226562 14.628906 19.925781 13.921875 19.585938 13.261719 C 19.578125 13.25 19.574219 13.238281 19.570312 13.230469 C 19.433594 12.964844 19.289062 12.703125 19.136719 12.445312 C 19.113281 12.40625 19.09375 12.367188 19.070312 12.328125 C 18.699219 11.699219 18.285156 11.089844 17.84375 10.507812 C 17.800781 10.453125 17.757812 10.398438 17.714844 10.339844 C 17.652344 10.257812 17.589844 10.175781 17.523438 10.09375 C 17.476562 10.042969 17.433594 9.988281 17.390625 9.933594 C 17.34375 9.867188 17.289062 9.804688 17.234375 9.746094 C 17.199219 9.703125 17.164062 9.660156 17.128906 9.617188 C 17.039062 9.507812 16.945312 9.398438 16.847656 9.289062 C 16.824219 9.265625 16.804688 9.242188 16.78125 9.214844 C 16.742188 9.167969 16.699219 9.125 16.65625 9.078125 C 16.636719 9.054688 16.613281 9.027344 16.59375 9.003906 C 16.539062 8.941406 16.480469 8.878906 16.421875 8.820312 C 16.390625 8.78125 16.355469 8.746094 16.324219 8.710938 C 16.265625 8.648438 16.207031 8.585938 16.144531 8.527344 C 16.121094 8.503906 16.101562 8.480469 16.078125 8.453125 C 16.027344 8.394531 15.972656 8.335938 15.914062 8.28125 C 15.898438 8.265625 15.898438 8.265625 15.878906 8.246094 C 15.855469 8.222656 15.832031 8.199219 15.808594 8.175781 C 15.78125 8.148438 15.75 8.117188 15.722656 8.085938 C 15.691406 8.058594 15.664062 8.03125 15.636719 8 C 15.625 7.992188 15.613281 7.980469 15.601562 7.96875 C 15.550781 7.917969 15.496094 7.867188 15.441406 7.816406 C 15.402344 7.785156 15.367188 7.746094 15.332031 7.710938 C 15.289062 7.667969 15.25 7.632812 15.203125 7.59375 C 15.164062 7.558594 15.125 7.519531 15.085938 7.484375 C 15.023438 7.425781 14.960938 7.367188 14.894531 7.308594 C 14.875 7.292969 14.859375 7.273438 14.839844 7.257812 C 14.789062 7.210938 14.734375 7.167969 14.683594 7.121094 C 14.636719 7.085938 14.59375 7.046875 14.550781 7.007812 C 14.496094 6.960938 14.441406 6.914062 14.386719 6.867188 C 14.347656 6.835938 14.3125 6.808594 14.277344 6.777344 C 14.214844 6.722656 14.152344 6.671875 14.089844 6.625 C 14.046875 6.589844 14 6.554688 13.957031 6.515625 C 13.894531 6.460938 13.824219 6.410156 13.757812 6.359375 C 13.703125 6.316406 13.648438 6.277344 13.597656 6.234375 C 13.503906 6.160156 13.410156 6.089844 13.3125 6.023438 C 13.285156 6 13.257812 5.980469 13.226562 5.957031 C 12.621094 5.507812 11.980469 5.09375 11.316406 4.726562 C 11.304688 4.722656 11.296875 4.71875 11.285156 4.710938 C 11.117188 4.617188 10.949219 4.527344 10.777344 4.441406 C 10.769531 4.4375 10.761719 4.433594 10.753906 4.429688 C 10.351562 4.222656 9.945312 4.039062 9.527344 3.875 C 9.519531 3.871094 9.511719 3.871094 9.503906 3.867188 C 9.242188 3.765625 8.976562 3.671875 8.707031 3.59375 C 8.691406 3.585938 8.691406 3.585938 8.679688 3.582031 C 8.65625 3.578125 8.632812 3.570312 8.609375 3.5625 C 8.578125 3.550781 8.578125 3.550781 8.566406 3.527344 C 8.582031 3.496094 8.601562 3.464844 8.617188 3.433594 C 8.625 3.421875 8.628906 3.414062 8.632812 3.402344 C 8.964844 2.824219 9.386719 2.222656 9.898438 1.785156 C 9.925781 1.761719 9.953125 1.738281 9.980469 1.714844 C 10.054688 1.644531 10.132812 1.585938 10.210938 1.523438 C 10.21875 1.519531 10.226562 1.511719 10.234375 1.507812 C 10.683594 1.164062 11.199219 0.929688 11.761719 0.851562 C 11.769531 0.851562 11.777344 0.847656 11.789062 0.847656 C 12.648438 0.746094 13.492188 1.097656 14.136719 1.65625 Z M 14.136719 1.65625 "/>
<path style=" stroke:none;fill-rule:nonzero;fill:rgb(23.921569%,59.607846%,43.921569%);fill-opacity:1;" d="M 3.660156 8.929688 C 3.667969 8.945312 3.667969 8.945312 3.671875 8.964844 C 3.808594 9.359375 3.957031 9.746094 4.128906 10.128906 C 4.136719 10.148438 4.136719 10.148438 4.144531 10.167969 C 4.3125 10.539062 4.492188 10.910156 4.699219 11.261719 C 4.730469 11.316406 4.761719 11.375 4.789062 11.429688 C 4.84375 11.523438 4.894531 11.617188 4.949219 11.707031 C 4.972656 11.742188 4.992188 11.777344 5.015625 11.8125 C 5.117188 11.984375 5.226562 12.15625 5.335938 12.328125 C 5.355469 12.351562 5.371094 12.375 5.386719 12.398438 C 5.523438 12.605469 5.664062 12.816406 5.808594 13.019531 C 5.8125 13.027344 5.820312 13.039062 5.828125 13.046875 C 5.917969 13.175781 6.011719 13.300781 6.109375 13.425781 C 6.152344 13.480469 6.191406 13.535156 6.230469 13.589844 C 6.335938 13.726562 6.441406 13.863281 6.550781 13.996094 C 6.582031 14.03125 6.609375 14.066406 6.636719 14.097656 C 6.738281 14.230469 6.84375 14.355469 6.953125 14.480469 C 6.992188 14.523438 7.027344 14.566406 7.0625 14.609375 C 7.117188 14.679688 7.175781 14.742188 7.234375 14.804688 C 7.269531 14.84375 7.304688 14.878906 7.335938 14.917969 C 7.417969 15.011719 7.503906 15.101562 7.589844 15.195312 C 7.601562 15.210938 7.617188 15.222656 7.628906 15.238281 C 7.742188 15.359375 7.742188 15.359375 7.859375 15.476562 C 7.878906 15.5 7.898438 15.523438 7.921875 15.546875 C 7.972656 15.605469 8.027344 15.660156 8.082031 15.714844 C 8.089844 15.726562 8.101562 15.734375 8.113281 15.746094 C 8.140625 15.773438 8.167969 15.800781 8.195312 15.828125 C 8.214844 15.847656 8.230469 15.863281 8.246094 15.878906 C 8.28125 15.914062 8.3125 15.945312 8.347656 15.980469 C 8.355469 15.988281 8.367188 16 8.375 16.011719 C 8.429688 16.0625 8.480469 16.109375 8.535156 16.15625 C 8.566406 16.1875 8.597656 16.21875 8.628906 16.246094 C 8.675781 16.296875 8.722656 16.339844 8.773438 16.386719 C 8.796875 16.40625 8.816406 16.425781 8.839844 16.445312 C 8.875 16.480469 8.910156 16.515625 8.949219 16.546875 C 8.984375 16.578125 9.019531 16.613281 9.054688 16.644531 C 9.144531 16.726562 9.234375 16.808594 9.328125 16.886719 C 9.382812 16.929688 9.433594 16.976562 9.488281 17.023438 C 9.609375 17.128906 9.738281 17.234375 9.863281 17.339844 C 9.878906 17.351562 9.894531 17.363281 9.90625 17.375 C 10 17.449219 10.089844 17.523438 10.183594 17.59375 C 10.238281 17.636719 10.292969 17.679688 10.347656 17.722656 C 10.441406 17.800781 10.539062 17.871094 10.636719 17.941406 C 10.667969 17.964844 10.695312 17.984375 10.726562 18.007812 C 10.839844 18.089844 10.957031 18.175781 11.070312 18.257812 C 11.101562 18.277344 11.132812 18.296875 11.160156 18.320312 C 11.347656 18.449219 11.535156 18.574219 11.722656 18.695312 C 11.734375 18.703125 11.746094 18.710938 11.757812 18.71875 C 12.277344 19.054688 12.816406 19.359375 13.367188 19.632812 C 13.398438 19.648438 13.429688 19.664062 13.460938 19.679688 C 13.574219 19.734375 13.6875 19.789062 13.804688 19.84375 C 13.8125 19.847656 13.820312 19.851562 13.828125 19.855469 C 14.371094 20.101562 14.925781 20.320312 15.5 20.472656 C 15.511719 20.472656 15.523438 20.476562 15.535156 20.480469 C 15.546875 20.484375 15.554688 20.484375 15.566406 20.488281 C 15.589844 20.496094 15.589844 20.496094 15.601562 20.519531 C 15.589844 20.546875 15.589844 20.546875 15.570312 20.578125 C 15.5625 20.59375 15.554688 20.605469 15.546875 20.617188 C 15.539062 20.632812 15.53125 20.644531 15.519531 20.660156 C 15.515625 20.664062 15.511719 20.671875 15.507812 20.679688 C 15.265625 21.085938 14.988281 21.472656 14.675781 21.828125 C 14.667969 21.839844 14.65625 21.851562 14.648438 21.859375 C 14.574219 21.941406 14.5 22.015625 14.425781 22.09375 C 14.414062 22.105469 14.398438 22.117188 14.386719 22.128906 C 14.316406 22.203125 14.246094 22.269531 14.164062 22.332031 C 14.136719 22.355469 14.113281 22.378906 14.085938 22.402344 C 13.601562 22.839844 12.890625 23.171875 12.230469 23.175781 C 12.21875 23.175781 12.210938 23.175781 12.199219 23.175781 C 11.785156 23.175781 11.785156 23.175781 11.59375 23.136719 C 11.578125 23.132812 11.566406 23.128906 11.554688 23.128906 C 11.058594 23.023438 10.609375 22.800781 10.210938 22.488281 C 10.199219 22.480469 10.191406 22.472656 10.179688 22.460938 C 10.148438 22.4375 10.121094 22.414062 10.09375 22.390625 C 10.082031 22.382812 10.070312 22.371094 10.054688 22.363281 C 9.871094 22.210938 9.691406 22.046875 9.535156 21.863281 C 9.511719 21.835938 9.488281 21.808594 9.460938 21.78125 C 9.410156 21.722656 9.359375 21.660156 9.3125 21.601562 C 9.300781 21.585938 9.292969 21.574219 9.28125 21.5625 C 9.007812 21.21875 8.769531 20.84375 8.550781 20.464844 C 8.546875 20.457031 8.542969 20.449219 8.539062 20.441406 C 8.507812 20.390625 8.507812 20.390625 8.507812 20.363281 C 8.492188 20.367188 8.492188 20.367188 8.476562 20.371094 C 8.089844 20.480469 7.695312 20.566406 7.296875 20.617188 C 7.28125 20.617188 7.269531 20.621094 7.253906 20.621094 C 6.816406 20.675781 6.351562 20.6875 5.914062 20.617188 C 5.902344 20.613281 5.886719 20.609375 5.871094 20.609375 C 5.414062 20.535156 4.949219 20.386719 4.570312 20.113281 C 4.5625 20.105469 4.550781 20.09375 4.539062 20.085938 C 4.339844 19.941406 4.15625 19.777344 4.007812 19.585938 C 4.003906 19.578125 3.996094 19.570312 3.992188 19.5625 C 3.878906 19.417969 3.789062 19.265625 3.707031 19.105469 C 3.703125 19.09375 3.699219 19.085938 3.695312 19.078125 C 3.515625 18.714844 3.425781 18.304688 3.382812 17.902344 C 3.382812 17.886719 3.382812 17.886719 3.378906 17.871094 C 3.34375 17.496094 3.359375 17.101562 3.40625 16.726562 C 3.410156 16.71875 3.410156 16.710938 3.410156 16.703125 C 3.460938 16.328125 3.535156 15.953125 3.640625 15.589844 C 3.652344 15.546875 3.660156 15.511719 3.660156 15.46875 C 3.632812 15.445312 3.632812 15.445312 3.597656 15.421875 C 3.589844 15.417969 3.582031 15.414062 3.578125 15.410156 C 3.5625 15.398438 3.546875 15.390625 3.535156 15.382812 C 3.496094 15.355469 3.460938 15.332031 3.421875 15.308594 C 3.410156 15.300781 3.410156 15.300781 3.398438 15.292969 C 3.242188 15.191406 3.09375 15.078125 2.949219 14.957031 C 2.917969 14.933594 2.890625 14.910156 2.859375 14.886719 C 2.796875 14.832031 2.738281 14.777344 2.675781 14.722656 C 2.644531 14.691406 2.613281 14.664062 2.578125 14.632812 C 2.472656 14.539062 2.371094 14.4375 2.28125 14.328125 C 2.269531 14.316406 2.257812 14.304688 2.25 14.292969 C 1.683594 13.652344 1.328125 12.851562 1.382812 11.984375 C 1.453125 11.121094 1.925781 10.394531 2.523438 9.796875 C 2.542969 9.777344 2.5625 9.757812 2.582031 9.738281 C 2.652344 9.667969 2.726562 9.601562 2.804688 9.539062 C 2.832031 9.515625 2.855469 9.496094 2.882812 9.472656 C 2.964844 9.394531 3.054688 9.332031 3.144531 9.265625 C 3.15625 9.253906 3.15625 9.253906 3.167969 9.246094 C 3.261719 9.175781 3.363281 9.105469 3.460938 9.035156 C 3.476562 9.027344 3.488281 9.015625 3.503906 9.007812 C 3.523438 8.996094 3.542969 8.980469 3.5625 8.96875 C 3.574219 8.960938 3.582031 8.953125 3.59375 8.945312 C 3.625 8.929688 3.625 8.929688 3.660156 8.929688 Z M 3.660156 8.929688 "/>
<path style=" stroke:none;fill-rule:nonzero;fill:rgb(84.705883%,0%,0%);fill-opacity:1;" d="M 20.148438 8.230469 C 20.199219 8.238281 20.246094 8.257812 20.292969 8.28125 C 20.300781 8.285156 20.308594 8.289062 20.316406 8.292969 C 20.34375 8.308594 20.367188 8.320312 20.394531 8.332031 C 20.414062 8.34375 20.429688 8.351562 20.449219 8.359375 C 20.484375 8.378906 20.519531 8.394531 20.554688 8.414062 C 20.59375 8.433594 20.632812 8.449219 20.671875 8.46875 C 20.824219 8.542969 20.972656 8.625 21.121094 8.710938 C 21.136719 8.722656 21.136719 8.722656 21.15625 8.734375 C 21.589844 8.984375 22.003906 9.269531 22.375 9.609375 C 22.390625 9.625 22.40625 9.636719 22.421875 9.652344 C 22.496094 9.714844 22.558594 9.777344 22.625 9.84375 C 22.644531 9.863281 22.664062 9.882812 22.683594 9.902344 C 22.75 9.964844 22.8125 10.03125 22.871094 10.105469 C 22.882812 10.113281 22.882812 10.113281 22.890625 10.125 C 23.34375 10.667969 23.703125 11.339844 23.722656 12.058594 C 23.722656 12.070312 23.722656 12.078125 23.726562 12.085938 C 23.738281 12.59375 23.617188 13.085938 23.375 13.535156 C 23.371094 13.542969 23.367188 13.554688 23.363281 13.5625 C 23.195312 13.875 22.980469 14.152344 22.738281 14.410156 C 22.730469 14.425781 22.71875 14.4375 22.707031 14.449219 C 22.558594 14.613281 22.394531 14.761719 22.222656 14.902344 C 22.214844 14.910156 22.210938 14.917969 22.203125 14.921875 C 21.789062 15.265625 21.328125 15.558594 20.851562 15.8125 C 20.820312 15.828125 20.789062 15.84375 20.757812 15.863281 C 20.738281 15.871094 20.722656 15.882812 20.703125 15.890625 C 20.691406 15.898438 20.691406 15.898438 20.675781 15.90625 C 20.621094 15.9375 20.621094 15.9375 20.578125 15.9375 C 20.578125 15.925781 20.578125 15.925781 20.574219 15.914062 C 20.542969 15.773438 20.507812 15.632812 20.464844 15.492188 C 20.453125 15.445312 20.4375 15.394531 20.425781 15.347656 C 20.226562 14.628906 19.925781 13.921875 19.585938 13.261719 C 19.578125 13.25 19.574219 13.238281 19.570312 13.230469 C 19.433594 12.964844 19.289062 12.703125 19.136719 12.445312 C 19.113281 12.40625 19.09375 12.367188 19.070312 12.328125 C 18.972656 12.164062 18.972656 12.164062 18.871094 12 C 18.863281 11.988281 18.855469 11.976562 18.847656 11.960938 C 18.832031 11.9375 18.816406 11.910156 18.800781 11.886719 C 18.792969 11.875 18.785156 11.863281 18.777344 11.851562 C 18.769531 11.839844 18.769531 11.839844 18.757812 11.824219 C 18.742188 11.792969 18.734375 11.769531 18.730469 11.734375 C 18.746094 11.703125 18.746094 11.703125 18.765625 11.671875 C 18.769531 11.660156 18.777344 11.644531 18.785156 11.632812 C 18.792969 11.617188 18.800781 11.605469 18.808594 11.589844 C 18.824219 11.570312 18.835938 11.546875 18.847656 11.523438 C 18.855469 11.511719 18.863281 11.496094 18.875 11.480469 C 19.101562 11.078125 19.304688 10.664062 19.488281 10.238281 C 19.5 10.210938 19.511719 10.1875 19.519531 10.164062 C 19.679688 9.796875 19.808594 9.425781 19.933594 9.046875 C 19.9375 9.035156 19.941406 9.019531 19.945312 9.007812 C 20.019531 8.769531 20.085938 8.53125 20.128906 8.285156 C 20.136719 8.257812 20.136719 8.257812 20.148438 8.230469 Z M 20.148438 8.230469 "/>
<path style=" stroke:none;fill-rule:nonzero;fill:rgb(99.607843%,85.882354%,0%);fill-opacity:1;" d="M 14.136719 1.65625 C 14.167969 1.683594 14.203125 1.714844 14.234375 1.746094 C 14.261719 1.769531 14.285156 1.792969 14.3125 1.8125 C 14.375 1.867188 14.433594 1.925781 14.492188 1.984375 C 14.507812 2 14.507812 2 14.523438 2.019531 C 14.585938 2.078125 14.644531 2.140625 14.699219 2.207031 C 14.710938 2.222656 14.722656 2.234375 14.734375 2.246094 C 14.820312 2.347656 14.902344 2.449219 14.980469 2.554688 C 15 2.578125 15.015625 2.601562 15.035156 2.625 C 15.304688 2.976562 15.535156 3.363281 15.742188 3.753906 C 15.746094 3.761719 15.753906 3.773438 15.757812 3.78125 C 15.792969 3.847656 15.792969 3.847656 15.792969 3.875 C 15.78125 3.878906 15.769531 3.882812 15.757812 3.882812 C 15.632812 3.914062 15.511719 3.945312 15.386719 3.976562 C 15.363281 3.984375 15.339844 3.988281 15.316406 3.996094 C 14.933594 4.089844 14.550781 4.21875 14.183594 4.367188 C 14.171875 4.375 14.15625 4.378906 14.140625 4.382812 C 13.800781 4.519531 13.46875 4.675781 13.140625 4.835938 C 13.121094 4.847656 13.121094 4.847656 13.097656 4.855469 C 12.949219 4.929688 12.804688 5.003906 12.660156 5.085938 C 12.648438 5.089844 12.636719 5.097656 12.625 5.101562 C 12.582031 5.128906 12.539062 5.152344 12.492188 5.179688 C 12.460938 5.199219 12.429688 5.21875 12.394531 5.238281 C 12.386719 5.242188 12.375 5.25 12.367188 5.253906 C 12.296875 5.292969 12.296875 5.292969 12.25 5.285156 C 12.210938 5.265625 12.167969 5.238281 12.128906 5.214844 C 11.785156 4.984375 11.417969 4.777344 11.050781 4.585938 C 11.035156 4.574219 11.035156 4.574219 11.019531 4.566406 C 10.9375 4.523438 10.855469 4.480469 10.777344 4.441406 C 10.769531 4.4375 10.761719 4.433594 10.753906 4.429688 C 10.355469 4.222656 9.945312 4.039062 9.527344 3.875 C 9.519531 3.871094 9.511719 3.871094 9.503906 3.867188 C 9.242188 3.765625 8.976562 3.671875 8.707031 3.59375 C 8.691406 3.585938 8.691406 3.585938 8.679688 3.582031 C 8.65625 3.578125 8.632812 3.570312 8.609375 3.5625 C 8.578125 3.550781 8.578125 3.550781 8.566406 3.527344 C 8.582031 3.496094 8.601562 3.464844 8.617188 3.433594 C 8.625 3.421875 8.628906 3.414062 8.632812 3.402344 C 8.964844 2.824219 9.386719 2.222656 9.898438 1.785156 C 9.925781 1.761719 9.953125 1.738281 9.980469 1.714844 C 10.054688 1.644531 10.132812 1.585938 10.210938 1.523438 C 10.21875 1.519531 10.226562 1.511719 10.234375 1.507812 C 10.683594 1.164062 11.199219 0.929688 11.761719 0.851562 C 11.769531 0.851562 11.777344 0.847656 11.789062 0.847656 C 12.648438 0.746094 13.492188 1.097656 14.136719 1.65625 Z M 14.136719 1.65625 "/>
<path style=" stroke:none;fill-rule:nonzero;fill:rgb(99.607843%,85.882354%,0%);fill-opacity:1;" d="M 11.886719 18.804688 C 11.929688 18.824219 11.972656 18.847656 12.011719 18.875 C 12.363281 19.101562 12.734375 19.304688 13.105469 19.5 C 13.121094 19.507812 13.121094 19.507812 13.136719 19.519531 C 13.574219 19.753906 14.03125 19.957031 14.496094 20.136719 C 14.507812 20.140625 14.507812 20.140625 14.519531 20.144531 C 14.839844 20.269531 15.167969 20.382812 15.5 20.472656 C 15.511719 20.472656 15.523438 20.476562 15.535156 20.480469 C 15.550781 20.484375 15.550781 20.484375 15.566406 20.488281 C 15.589844 20.496094 15.589844 20.496094 15.601562 20.519531 C 15.589844 20.546875 15.589844 20.546875 15.570312 20.578125 C 15.558594 20.597656 15.558594 20.597656 15.546875 20.617188 C 15.539062 20.632812 15.53125 20.644531 15.519531 20.660156 C 15.515625 20.667969 15.515625 20.667969 15.507812 20.679688 C 15.265625 21.085938 14.988281 21.472656 14.675781 21.828125 C 14.660156 21.84375 14.660156 21.84375 14.648438 21.859375 C 14.574219 21.941406 14.5 22.015625 14.425781 22.09375 C 14.414062 22.105469 14.398438 22.117188 14.386719 22.128906 C 14.316406 22.203125 14.246094 22.269531 14.164062 22.332031 C 14.136719 22.355469 14.113281 22.378906 14.085938 22.402344 C 13.601562 22.839844 12.890625 23.171875 12.230469 23.175781 C 12.21875 23.175781 12.210938 23.175781 12.199219 23.175781 C 11.785156 23.175781 11.785156 23.175781 11.59375 23.136719 C 11.578125 23.132812 11.566406 23.128906 11.554688 23.128906 C 11.058594 23.023438 10.609375 22.800781 10.210938 22.488281 C 10.199219 22.480469 10.191406 22.472656 10.179688 22.460938 C 10.148438 22.4375 10.121094 22.414062 10.09375 22.390625 C 10.082031 22.382812 10.070312 22.371094 10.054688 22.363281 C 9.871094 22.210938 9.691406 22.046875 9.535156 21.863281 C 9.511719 21.835938 9.488281 21.808594 9.460938 21.78125 C 9.410156 21.722656 9.359375 21.660156 9.3125 21.601562 C 9.296875 21.582031 9.296875 21.582031 9.28125 21.5625 C 9.027344 21.246094 8.808594 20.90625 8.605469 20.554688 C 8.59375 20.539062 8.585938 20.527344 8.578125 20.511719 C 8.566406 20.496094 8.558594 20.480469 8.550781 20.464844 C 8.546875 20.457031 8.539062 20.449219 8.535156 20.445312 C 8.519531 20.417969 8.507812 20.394531 8.507812 20.359375 C 8.53125 20.324219 8.566406 20.320312 8.605469 20.3125 C 8.625 20.308594 8.644531 20.300781 8.660156 20.296875 C 8.671875 20.292969 8.683594 20.292969 8.691406 20.289062 C 8.746094 20.273438 8.800781 20.253906 8.855469 20.238281 C 8.867188 20.234375 8.878906 20.230469 8.890625 20.226562 C 8.925781 20.214844 8.960938 20.199219 8.996094 20.1875 C 9.015625 20.183594 9.015625 20.183594 9.035156 20.175781 C 9.234375 20.109375 9.429688 20.035156 9.625 19.957031 C 9.636719 19.949219 9.652344 19.945312 9.664062 19.9375 C 10.148438 19.738281 10.621094 19.511719 11.074219 19.261719 C 11.089844 19.253906 11.101562 19.246094 11.113281 19.238281 C 11.246094 19.164062 11.382812 19.089844 11.511719 19.011719 C 11.523438 19.003906 11.535156 19 11.546875 18.992188 C 11.597656 18.960938 11.652344 18.929688 11.703125 18.898438 C 11.710938 18.890625 11.722656 18.882812 11.730469 18.878906 C 11.75 18.867188 11.769531 18.855469 11.789062 18.84375 C 11.847656 18.804688 11.847656 18.804688 11.886719 18.804688 Z M 11.886719 18.804688 "/>
<path style=" stroke:none;fill-rule:nonzero;fill:rgb(84.705883%,0%,0%);fill-opacity:1;" d="M 3.660156 8.929688 C 3.667969 8.945312 3.667969 8.945312 3.671875 8.964844 C 3.808594 9.359375 3.957031 9.746094 4.128906 10.128906 C 4.136719 10.148438 4.136719 10.148438 4.144531 10.167969 C 4.3125 10.539062 4.492188 10.910156 4.699219 11.261719 C 4.730469 11.316406 4.761719 11.375 4.789062 11.429688 C 4.84375 11.523438 4.894531 11.617188 4.949219 11.707031 C 4.972656 11.746094 4.996094 11.78125 5.019531 11.820312 C 5.03125 11.84375 5.046875 11.863281 5.058594 11.886719 C 5.070312 11.902344 5.078125 11.917969 5.085938 11.933594 C 5.101562 11.953125 5.113281 11.976562 5.125 11.996094 C 5.136719 12.015625 5.136719 12.015625 5.148438 12.035156 C 5.164062 12.0625 5.183594 12.085938 5.199219 12.109375 C 5.21875 12.144531 5.21875 12.144531 5.214844 12.179688 C 5.195312 12.222656 5.171875 12.261719 5.144531 12.296875 C 5.007812 12.515625 4.882812 12.738281 4.757812 12.960938 C 4.742188 12.992188 4.722656 13.027344 4.703125 13.058594 C 4.523438 13.386719 4.359375 13.722656 4.210938 14.066406 C 4.199219 14.085938 4.191406 14.109375 4.179688 14.128906 C 4.042969 14.445312 3.921875 14.769531 3.808594 15.09375 C 3.804688 15.101562 3.800781 15.113281 3.800781 15.121094 C 3.761719 15.234375 3.726562 15.351562 3.695312 15.46875 C 3.648438 15.46875 3.632812 15.453125 3.59375 15.425781 C 3.585938 15.421875 3.582031 15.417969 3.574219 15.414062 C 3.550781 15.398438 3.53125 15.382812 3.507812 15.371094 C 3.496094 15.359375 3.480469 15.351562 3.464844 15.339844 C 3.285156 15.21875 3.113281 15.09375 2.949219 14.957031 C 2.917969 14.933594 2.890625 14.910156 2.859375 14.886719 C 2.796875 14.832031 2.738281 14.777344 2.675781 14.722656 C 2.644531 14.691406 2.613281 14.664062 2.578125 14.632812 C 2.472656 14.539062 2.371094 14.4375 2.28125 14.328125 C 2.269531 14.316406 2.257812 14.304688 2.25 14.292969 C 1.683594 13.652344 1.328125 12.851562 1.382812 11.984375 C 1.453125 11.121094 1.925781 10.394531 2.523438 9.796875 C 2.542969 9.777344 2.5625 9.757812 2.582031 9.738281 C 2.652344 9.667969 2.726562 9.601562 2.804688 9.539062 C 2.832031 9.515625 2.855469 9.496094 2.882812 9.472656 C 2.964844 9.394531 3.054688 9.332031 3.144531 9.265625 C 3.15625 9.253906 3.15625 9.253906 3.167969 9.246094 C 3.261719 9.175781 3.363281 9.105469 3.460938 9.035156 C 3.476562 9.027344 3.488281 9.015625 3.503906 9.007812 C 3.523438 8.996094 3.542969 8.980469 3.5625 8.96875 C 3.574219 8.960938 3.582031 8.953125 3.59375 8.945312 C 3.625 8.929688 3.625 8.929688 3.660156 8.929688 Z M 3.660156 8.929688 "/>
</g>
</svg>
